<svg xmlns="http://www.w3.org/2000/svg" version="1.1" xmlns:xlink="http://www.w3.org/1999/xlink" xmlns:svgjs="http://svgjs.dev/svgjs" width="100%" height="100%" viewBox="0 0 1000 600"><rect width="1000" height="600" x="0" y="0" fill="#533549"/><g><rect width="333.3333333333333" height="333.3333333333333" rx="13.333333333333334" ry="13.333333333333334" y="249.66104725099356" fill="#f6b042" transform="matrix(0.5495982940984199,0,0,0.5495982940984199,0,71.18698516227556)" x="227.4388427734375"/><path d="M349.4913605247357 488.43381974829896L337.2479769911315 350.97401371192507Q368.783964880718 341.3277115339339 396.461431899108 341.3277115339339Q424.1017977552749 341.3277115339339 440.5376126200829 351.4934299830477L440.5376126200829 351.4934299830477Q444.1735265179411 362.43827283884536 444.1735265179411 372.3442831523978L444.1735265179411 372.3442831523978Q444.1735265179411 394.79048629733876 424.88092216195884 409.14863607765636L424.88092216195884 409.14863607765636Q436.86459756000164 418.53523012008617 443.9138183823798 430.51890551812903Q450.96303920475793 442.53968207839495 450.96303920475793 452.7054005275087L450.96303920475793 452.7054005275087Q450.96303920475793 469.6606316634393 435.45475339552604 480.4941710325678Q419.90936642407104 491.3277104016963 386.77802855889377 491.3277104016963L386.77802855889377 491.3277104016963Q368.00484047403404 491.3277104016963 349.4913605247357 488.43381974829896L349.4913605247357 488.43381974829896ZM377.1317263809026 428.70094856919997L372.1972718052379 472.77712929017486Q383.92123906771945 475.93072807913353 394.75477843684797 475.93072807913353Q405.5883178059765 475.93072807913353 408.7048154327121 474.63218740132703L408.7048154327121 474.63218740132703Q416.27345252621285 459.49491321432555 416.27345252621285 444.357639027324Q416.27345252621285 429.22036484032253 409.2242317038347 418.2755219845249L409.2242317038347 418.2755219845249Q396.461431899108 424.02620212909653 377.1317263809026 428.70094856919997L377.1317263809026 428.70094856919997ZM378.4302670587091 416.1978569000345Q392.7884168390267 410.44717675546286 401.13617833921137 400.28145830634907Q409.48393983939604 390.1157398572353 409.48393983939604 381.6195737081585Q409.48393983939604 373.1605087213047 406.4787456993295 365.9628832500344Q403.47355155926306 358.8023589409871 398.27938884803706 355.12934388090594L398.27938884803706 355.12934388090594Q393.3078331101493 355.12934388090594 384.7003634744034 357.76352639874193L384.7003634744034 357.76352639874193L378.4302670587091 416.1978569000345Z " fill="#533549" transform="matrix(0.5495982940984199,0,0,0.5495982940984199,0,71.18698516227556)"/><path d="M709.138855516524 397.55400689511475L709.138855516524 397.55400689511475Q723.83544239927 414.6526165802021 723.83544239927 436.42884961721717Q723.83544239927 458.2050826542323 715.1439125223771 467.08624591025733Q706.483988208673 475.99901472947107 683.1590825754115 475.99901472947107Q659.8341769421502 475.99901472947107 646.9391071611601 465.31633437169006L646.9391071611601 465.31633437169006Q638.0263383419463 421.7638682976598 657.1477040711105 394.64629508175426L657.1477040711105 394.64629508175426Q669.1578180828169 377.99016328130875 678.2602202811629 373.312539929381L678.2602202811629 373.312539929381Q695.6116744717599 382.193703185406 709.138855516524 397.55400689511475ZM699.8152143758571 456.2139321733441L699.8152143758571 456.2139321733441Q702.7229261892176 445.0887739309213 702.7229261892176 430.423792611364Q702.7229261892176 415.75881129180664 695.390435529439 401.53630785689114L695.390435529439 401.53630785689114Q680.251370762051 409.5325153436325 670.3588294839876 425.87259151219104Q660.4978937691128 442.2126676807495 660.4978937691128 458.868799481195L660.4978937691128 458.868799481195Q666.2501062694564 459.97499419279956 677.2488422591244 459.97499419279956Q688.2791838119812 459.97499419279956 699.8152143758571 456.2139321733441ZM757.1477060001611 475.7777757871502L757.1477060001611 475.7777757871502Q754.0503608076683 475.7777757871502 752.7229271537428 475.5565368448293L752.7229271537428 475.5565368448293Q746.4966312055687 471.3213913775433 742.8303858756794 463.103944948481Q739.16414054579 454.8864985194187 739.16414054579 444.5514793567134Q739.16414054579 434.2164601940081 747.9188815490603 429.0015422678724Q756.7052281155193 423.75501877854805 780.2513726911016 423.75501877854805L780.2513726911016 423.75501877854805Q788.9429025679943 423.75501877854805 798.7090215933031 424.8612134901526L798.7090215933031 424.8612134901526L798.2665437086612 420.87891252837625Q797.6028268816985 413.5464218685975 791.3765309335245 409.3112764013116Q785.1502349853503 405.1077364972143 775.4789326496077 405.1077364972143Q765.8076303138652 405.1077364972143 756.2627502308774 411.0811879398789L756.2627502308774 411.0811879398789L748.266542744136 384.8801760564456Q763.8164798329769 378.43264116595054 783.8228013314248 378.43264116595054Q803.8291228298726 378.43264116595054 815.4915756465034 387.4402266747304Q827.1540284631341 396.41620662032153 827.1540284631341 415.53757234948574L827.1540284631341 415.53757234948574Q827.1540284631341 419.9939567590926 826.7115505784923 422.42758512462257L826.7115505784923 422.42758512462257L821.8126882842437 472.64882503146873L803.6078838875517 474.1974976277151L800.9214110165121 447.9964857442818L799.5939773625867 447.9964857442818Q793.3676814144126 461.1127944675928 782.3689454247445 468.4452851273715Q771.3702094350765 475.7777757871502 757.1477060001611 475.7777757871502ZM799.3727384202658 432.6677875977618L799.3727384202658 432.6677875977618L789.827858337278 432.41494309225214Q777.8177443255715 432.41494309225214 770.042775781151 433.7739823093663L770.042775781151 433.7739823093663Q767.6091474156211 438.8624779827472 767.6091474156211 442.8763845077122Q767.6091474156211 446.8902910326773 768.5889198744709 450.55653636256665Q769.6002978965093 454.22278169245595 770.9277315504347 455.3289764040605L770.9277315504347 455.3289764040605Q792.7039645874498 451.9787867060582 799.3727384202658 432.6677875977618ZM907.8114257206995 411.5552713877094L907.8114257206995 411.5552713877094Q895.3904393875399 411.5552713877094 889.037721186611 420.2151957014135Q882.7166085488708 428.8751200151176 879.5876577931894 451.9787867060582L879.5876577931894 451.9787867060582L877.1540294276593 472.64882503146873L859.1704639732884 474.1974976277151L850.0364562117538 383.99522028716194L888.9429044970449 377.99016328130875L885.1502369144008 407.0988869781025L886.4776705683262 407.0988869781025Q901.1426518878836 375.77777385809964 923.6142073150502 373.7550178140228L923.6142073150502 373.7550178140228L918.4941060784804 412.440227156993Q911.8253322456645 411.5552713877094 907.8114257206995 411.5552713877094ZM960.7191384985853 475.7777757871502L960.7191384985853 475.7777757871502Q956.2627540889785 475.7777757871502 953.3866478388065 474.1974976277151L953.3866478388065 474.1974976277151Q946.7178740059907 467.3074848525782 942.6091507914595 453.65388155505934Q938.5004275769284 440.0002782575404 938.5004275769284 420.7524902756214Q938.5004275769284 401.53630785689114 946.9391129483115 391.42252763650674Q955.3777983196948 381.30874741612234 976.2690755874262 381.30874741612234L976.2690755874262 381.30874741612234Q989.1641453684163 381.30874741612234 1002.0592151494063 386.42884865269195L1002.0592151494063 386.42884865269195L999.3727422783668 347.33276698826865L1038.279190563658 341.3277099824154L1026.7115544365934 472.64882503146873L1008.5067500399014 474.1974976277151L1006.2627550535036 442.8763845077122L1004.7140824572573 442.8763845077122Q990.7128179646627 475.7777757871502 960.7191384985853 475.7777757871502ZM983.380327304884 392.21266671622425L983.380327304884 392.21266671622425Q976.7115534720681 392.21266671622425 971.8126911778194 394.64629508175426L971.8126911778194 394.64629508175426Q969.3790628122894 407.7626038050652 969.3790628122894 429.31759789975945Q969.3790628122894 450.8725919944536 973.1717303949335 461.1127944675928L973.1717303949335 461.1127944675928Q982.0528936509585 459.75375525047866 991.8190126762672 448.43896362892366L991.8190126762672 448.43896362892366Q996.9391139128368 442.6551455653913 1000.3841203004051 431.8776485180442Q1003.8291266879737 421.10015147069714 1003.8291266879737 407.32012592042344L1003.8291266879737 407.32012592042344Q1003.8291266879737 404.66525861257253 1003.3866488033318 398.6602016067193L1003.3866488033318 398.6602016067193Q995.1692023742696 392.21266671622425 983.380327304884 392.21266671622425ZM1121.3702161867532 480.64503251821014L1120.4852604174696 473.53378080075237Q1115.6180036864098 473.9762586853942 1106.167940292988 473.9762586853942Q1096.7178768995664 473.9762586853942 1084.8341851406149 470.75249124014664Q1072.9504933816631 467.5287237948991 1066.502958491168 462.21898917919737L1066.502958491168 462.21898917919737Q1063.3740077354867 447.55400785963997 1063.5952466778076 431.97246520761036L1063.5952466778076 431.97246520761036Q1063.5952466778076 405.1077364972143 1072.8240711289084 381.65640861119806Q1082.0528955800091 358.2050807251818 1101.395500251494 343.9825772902663L1101.395500251494 343.9825772902663L1136.509280954141 366.2012882119232Q1111.3828582191238 382.193703185406 1096.5914546468116 407.0988869781025Q1081.8316566376882 431.97246520761036 1081.8316566376882 456.87764900030686L1081.8316566376882 456.87764900030686Q1091.8190146053178 458.868799481195 1101.6167391938152 458.868799481195Q1111.3828582191238 458.868799481195 1119.157826763544 457.09888794262775L1119.157826763544 457.09888794262775L1115.6180036864098 417.307483888053L1150.0364619989052 415.0950944648439L1139.164148261992 479.09635992196377L1121.3702161867532 480.64503251821014ZM1179.8405080858506 475.7777757871502L1179.8405080858506 475.7777757871502Q1176.711557330169 475.7777757871502 1175.3841236762437 475.5565368448293L1175.3841236762437 475.5565368448293Q1169.1578277280694 471.3213913775433 1165.49158239818 463.103944948481Q1161.8253370682908 454.8864985194187 1161.8253370682908 444.5514793567134Q1161.8253370682908 434.2164601940081 1170.6116836347496 429.0015422678724Q1179.3980302012087 423.75501877854805 1202.944174776791 423.75501877854805L1202.944174776791 423.75501877854805Q1211.604099090495 423.75501877854805 1221.3702181158037 424.8612134901526L1221.3702181158037 424.8612134901526L1220.9277402311618 420.87891252837625Q1220.2640234041992 413.5464218685975 1214.037727456025 409.3112764013116Q1207.8430370710398 405.1077364972143 1198.1717347352972 405.1077364972143Q1188.5004323995545 405.1077364972143 1178.9555523165668 411.0811879398789L1178.9555523165668 411.0811879398789L1170.9277392666368 384.8801760564456Q1186.5092819186664 378.43264116595054 1206.4839978539255 378.43264116595054Q1226.4903193523733 378.43264116595054 1238.152772169004 387.4402266747304Q1249.8152249856348 396.41620662032153 1249.8152249856348 415.53757234948574L1249.8152249856348 415.53757234948574Q1249.8152249856348 419.9939567590926 1249.372747100993 422.42758512462257L1249.372747100993 422.42758512462257L1244.5054903699329 472.64882503146873L1226.2690804100525 474.1974976277151L1223.6142131022016 447.9964857442818L1222.286779448276 447.9964857442818Q1216.060483500102 461.1127944675928 1205.061747510434 468.4452851273715Q1194.063011520766 475.7777757871502 1179.8405080858506 475.7777757871502ZM1222.0655405059551 432.6677875977618L1222.0655405059551 432.6677875977618L1212.4890548597787 432.41494309225214Q1200.510546411261 432.41494309225214 1192.7039723036519 433.7739823093663L1192.7039723036519 433.7739823093663Q1190.2703439381219 438.8624779827472 1190.2703439381219 442.8763845077122Q1190.2703439381219 446.8902910326773 1191.2817219601602 450.55653636256665Q1192.26149441901 454.22278169245595 1193.6205336361243 455.3289764040605L1193.6205336361243 455.3289764040605Q1215.3967666731392 451.9787867060582 1222.0655405059551 432.6677875977618ZM1341.3765415433022 376.2202517427415L1341.3765415433022 376.2202517427415Q1344.7267312413046 376.2202517427415 1348.266554318439 377.5476853966669L1348.266554318439 377.5476853966669Q1355.3778060358968 386.20760971037106 1359.6129515031826 409.0900374589907L1359.6129515031826 409.0900374589907L1360.9403851571083 409.0900374589907Q1367.6091589899243 393.7613393124706 1376.1742666140622 384.9749927460117Q1384.7077686750113 376.2202517427415 1394.2842543211877 376.2202517427415L1394.2842543211877 376.2202517427415Q1397.6028384560016 376.2202517427415 1400.731789211683 377.5476853966669L1400.731789211683 377.5476853966669Q1410.0554303523497 388.641238075901 1413.626858992673 416.991428256166Q1417.1666820698074 445.3100128732422 1417.1666820698074 472.64882503146873L1417.1666820698074 472.64882503146873L1384.2652907903696 474.1974976277151Q1384.2652907903696 431.0875094383267 1381.6104234825189 397.9964847797566L1381.6104234825189 397.9964847797566Q1359.8341904455037 406.6564090934607 1352.7229387280458 472.64882503146873L1352.7229387280458 472.64882503146873L1331.3891835756726 474.1974976277151Q1331.3891835756726 431.0875094383267 1328.7343162678217 397.9964847797566L1328.7343162678217 397.9964847797566Q1320.4852642755707 401.0938299722493 1312.836717983905 415.2215167175987Q1305.1565661290506 429.31759789975945 1301.395504109595 459.3112773658368L1301.395504109595 459.3112773658368L1299.8468315133487 472.64882503146873L1281.831660495789 474.1974976277151L1272.7292582974433 383.99522028716194L1311.6041010195456 377.99016328130875L1308.064277942411 406.2139312088189L1309.1704726540156 406.2139312088189Q1323.3929760889314 376.2202517427415 1341.3765415433022 376.2202517427415ZM1472.950501097865 373.312539929381L1472.950501097865 373.312539929381Q1516.9454450565372 390.8852330622988 1516.9454450565372 417.307483888053L1516.9454450565372 417.307483888053Q1516.9454450565372 431.0875094383267 1509.1704765121167 437.0925664441799Q1501.395507967696 443.09762345003315 1484.391714972175 443.09762345003315Q1467.3879219766536 443.09762345003315 1458.7279976629495 441.106472969145L1458.7279976629495 441.106472969145Q1455.3778079649471 449.5451583405282 1455.1565690226262 458.868799481195L1455.1565690226262 458.868799481195Q1463.4056210148774 459.97499419279956 1478.0706023344346 459.97499419279956Q1492.735583653992 459.97499419279956 1509.6129543967584 454.22278169245595L1509.6129543967584 454.22278169245595L1514.9542945756489 471.7638692621851Q1501.6167469100171 475.99901472947107 1485.1818540518923 475.99901472947107L1485.1818540518923 475.99901472947107Q1455.599046907268 475.99901472947107 1441.8190213569944 465.09509542936917L1441.8190213569944 465.09509542936917Q1438.9429151068225 452.2000256483791 1438.9429151068225 440.8852340268241L1438.9429151068225 440.8852340268241Q1438.9429151068225 417.9712007150157 1449.0566953272069 399.41873512324815Q1459.1704755475914 380.86626953148055 1472.950501097865 373.312539929381ZM1462.267820740084 432.6677875977618L1462.267820740084 432.6677875977618Q1464.511815726482 432.8890265400827 1474.1831180622244 432.8890265400827Q1483.8228148347782 432.8890265400827 1496.2754067311264 430.2025536690431L1496.2754067311264 430.2025536690431Q1496.7178846157685 426.88396953422944 1496.9391235580892 423.3125408939062L1496.9391235580892 423.3125408939062Q1496.9391235580892 412.440227156993 1490.7128276099152 402.4212636261747L1490.7128276099152 402.4212636261747Q1472.5080232132232 414.4313776378812 1462.267820740084 432.6677875977618ZM1537.6154833819478 411.5552713877094L1537.6154833819478 411.5552713877094Q1537.6154833819478 388.1987601912592 1562.2678226691346 368.8877610829628L1562.2678226691346 368.8877610829628L1592.0718687560798 389.08371596054286Q1571.844308315311 401.97878574153293 1571.844308315311 416.2012891764484L1571.844308315311 416.2012891764484Q1571.844308315311 423.75501877854805 1580.1565714339395 435.7651327902545Q1588.5004401157566 447.7752468019609 1588.5004401157566 454.4440206347769L1588.5004401157566 454.4440206347769Q1588.5004401157566 478.21140415268013 1555.5990488363186 491.32771287599115L1555.5990488363186 491.32771287599115L1547.6028413495771 480.4237935758892Q1562.0465837268134 472.64882503146873 1562.0465837268134 463.420000580368Q1562.0465837268134 454.22278169245595 1549.8468363359752 440.66399508450314L1549.8468363359752 440.66399508450314Q1545.1692129840471 435.5438938479336 1541.376545401403 427.6425030507583Q1537.6154833819478 419.7727178167717 1537.6154833819478 411.5552713877094Z " fill="#f6b042" transform="matrix(0.5495982940984199,0,0,0.5495982940984199,0,71.18698516227556)"/></g></svg>